<svg xmlns="http://www.w3.org/2000/svg" xmlns:xlink="http://www.w3.org/1999/xlink" width="128" height="128" viewBox="0 0 128 128"><defs id="defs4254"><linearGradient id="linearGradient4206" x1="302.736" x2="311.274" y1="377.953" y2="390.783" gradientTransform="matrix(5.2961708,0,0,4.9974862,-1603.0989,-1873.1257)" gradientUnits="userSpaceOnUse" xlink:href="#linearGradient4554"/><linearGradient id="linearGradient4554"><stop id="stop4556" offset="0" stop-color="#fff" stop-opacity="1"/><stop id="stop4558" offset="1" stop-color="#fff" stop-opacity="0"/></linearGradient><linearGradient id="linearGradient4222" x1="401.934" x2="414.39" y1="376.137" y2="390.493" gradientTransform="matrix(2.7131949,0,0,2.7134878,-1075.9729,-978.37049)" gradientUnits="userSpaceOnUse" xlink:href="#linearGradient4738"/><linearGradient id="linearGradient4738"><stop id="stop4740" offset="0" stop-color="#fff" stop-opacity=".727"/><stop id="stop4742" offset="1" stop-color="#fff" stop-opacity="1"/></linearGradient><linearGradient id="linearGradient4213" x1="314.565" x2="332.025" y1="369.98" y2="387.439" gradientUnits="userSpaceOnUse" xlink:href="#linearGradient4568"/><linearGradient id="linearGradient4568"><stop id="stop4570" offset="0" stop-color="#118909" stop-opacity="1"/><stop id="stop4572" offset="1" stop-color="#084c06" stop-opacity="1"/></linearGradient></defs><g id="layer1" transform="matrix(0.89069721,0,0,0.89069721,3.6618346e-5,0.04842997)"><path id="path4531" fill="#084c06" fill-opacity="1" fill-rule="nonzero" stroke="none" stroke-width="3.625" d="m 339.53775,378.05789 a 13.966679,13.966679 0 1 1 -27.93335,0 13.966679,13.966679 0 1 1 27.93335,0 z" display="inline" overflow="visible" transform="matrix(5.1446606,0,0,5.1446606,-1603.0989,-1873.1257)" visibility="visible" style="marker:none"/><path id="path4533" fill="url(#linearGradient4213)" fill-opacity="1" fill-rule="nonzero" stroke="#fff" stroke-dashoffset="0" stroke-linecap="butt" stroke-linejoin="miter" stroke-miterlimit="4" stroke-opacity="1" stroke-width=".325" d="m 339.53775,378.05789 a 13.966679,13.966679 0 1 1 -27.93335,0 13.966679,13.966679 0 1 1 27.93335,0 z" display="inline" overflow="visible" transform="matrix(4.6972957,0,0,4.6972957,-1457.4507,-1703.9962)" visibility="visible" style="marker:none"/><path id="rect4574" fill="url(#linearGradient4222)" fill-opacity="1" fill-rule="nonzero" stroke="none" stroke-width=".616" d="m 39.649739,58.140662 c -0.416752,0 -1.10107,0.251488 -1.403395,0.565849 L 24.773752,72.459332 c -0.60447,0.610757 -0.603572,1.362528 0,1.965202 l 21.176669,20.112782 13.75327,13.753724 c 0.305379,0.30537 0.705964,0.55686 1.122716,0.55686 0.308073,0 0.599979,-0.32334 0.841588,-0.55686 L 75.421265,94.818444 118.92651,51.312752 c 0.61255,-0.601775 0.61076,-1.640961 0,-2.245431 L 105.17324,35.314499 c -0.61076,-0.601776 -1.3619,-0.610757 -1.96475,0 L 60.825958,77.696577 40.772006,58.706511 C 40.469321,58.401132 40.066042,58.140662 39.64929,58.140662 z" display="inline" overflow="visible" visibility="visible" style="marker:none"/><path id="path4537" fill="url(#linearGradient4206)" fill-opacity="1" fill-rule="nonzero" stroke="none" stroke-width=".616" d="m 71.809802,6.2837595 c -36.214325,0 -65.5944541,29.3810275 -65.5943643,65.5953525 0,17.398505 7.1005943,32.946768 18.1670703,44.693078 5.749114,-47.484599 45.82702,-84.40399 94.854592,-84.40399 1.32202,0 2.54955,0.269452 3.85855,0.323342 C 111.09875,16.887587 92.999137,6.2855559 71.809802,6.2855559 z" display="inline" overflow="visible" visibility="visible" style="marker:none"/></g></svg>