<svg xmlns="http://www.w3.org/2000/svg" xmlns:cc="http://web.resource.org/cc/" xmlns:svg="http://www.w3.org/2000/svg" id="Layer_1" width="135.55" height="135.511" enable-background="new 0 0 135.55 135.511" overflow="visible" space="preserve" version="1.1" viewBox="0 0 135.55 135.511"><metadata/><path id="path3" fill="#d05800" fill-opacity="1" d="M135.55,67.732c0,34.533-27.088,64.336-61.504,67.5c-34.428,3.165-66.644-21.045-72.942-55.092 c-6.297-34.04,14.95-68.33,48.31-77.686c33.372-9.357,69.43,8.813,81.738,41.207C134.067,51.334,135.55,59.525,135.55,67.732"/><radialGradient id="XMLID_2_" cx="44.447" cy="46.329" r="84.731" gradientUnits="userSpaceOnUse"><stop id="stop6" offset="0" stop-color="#FFC154"/><stop id="stop8" offset="1" stop-color="#F29B00"/></radialGradient><path id="path10" fill="url(#XMLID_2_)" d="M130.755,67.732c0,34.33-28.665,62.995-62.995,62.995c-34.331,0-62.995-28.665-62.995-62.995 c0-34.331,28.664-62.995,62.995-62.995C102.09,4.737,130.755,33.401,130.755,67.732"/><path id="path12" fill="#F28500" d="M124.68,43.246c5.089,29.667-12.629,59.468-41.123,69.176c-30.22,10.297-64.225-4.923-76.863-34.193 c6.073,35.425,42.497,58.713,77.203,49.347C119.728,117.905,139.449,77.414,124.68,43.246"/><path id="path14" fill="#FFE000" d="M107.105,39.768c-8.712,1.802-18.743-10.54-26.297-13.679c-14.114-5.867-31.741-3.143-44.526,4.846 c-13.523,8.449-23.141,24.68-24.622,40.611c-0.004,0.045-0.005,0.054-0.002,0.024c0.999-9.647,0.325-18.717,3.999-28.043 c6.087-15.458,19.253-27.563,35.127-32.426c16.41-5.027,34.356-1.828,48.495,7.753C103.643,21.814,120.448,37.005,107.105,39.768"/><path id="path16" fill="#d05800" fill-opacity="1" d="M 95.933412,32.024555 C 100.25582,45.476784 94.36717,51.77253 91.979998,54.195272 C 87.375741,58.868135 80.794664,65.833414 77.641211,71.588949 C 73.948418,78.328863 67.545694,101.40006 60.859007,82.569783 C 52.854525,60.028484 64.159885,53.882949 69.570349,49.317208 C 73.331201,46.14353 77.941358,38.648964 70.71498,36.237577 C 60.706779,32.897917 55.616131,49.490973 44.268722,46.283185 C 36.904656,44.201444 36.395893,36.120468 38.920178,29.895305 C 46.221466,11.889528 88.541992,9.0209038 95.933412,32.024555 z"/><path id="path3947" fill="#fff" fill-opacity="1" d="M 67.4375,18.5 C 55.817137,18.586494 44.530752,23.757032 41.59375,31 C 40.522016,33.643014 40.13962,36.702863 40.6875,38.96875 C 41.23538,41.234637 42.304751,42.720415 45.0625,43.5 C 47.216875,44.109018 48.79428,43.802641 50.5625,42.96875 C 52.33072,42.134859 54.168678,40.651607 56.125,39 C 58.081322,37.348393 60.133084,35.547637 62.65625,34.28125 C 65.179416,33.014863 68.371085,32.414194 71.625,33.5 C 73.945545,34.274348 75.805727,35.695606 76.71875,37.59375 C 77.631773,39.491894 77.550612,41.546092 77.0625,43.28125 C 76.086276,46.751566 73.72758,49.598715 71.4375,51.53125 C 68.461338,54.042751 64.856018,56.358414 62.75,60.5 C 60.643982,64.641586 59.731896,70.806446 63.5625,81.59375 C 64.342679,83.790801 65.105158,85.274115 65.6875,86.09375 C 66.269842,86.913385 66.57772,86.970858 66.4375,86.9375 C 66.29728,86.904142 66.11021,87.015595 66.4375,86.78125 C 66.76479,86.546905 67.353896,85.931302 67.96875,85.03125 C 69.198459,83.231146 70.542521,80.427112 71.75,77.65625 C 72.957479,74.885388 74.03777,72.171861 75.125,70.1875 C 78.616917,63.814217 85.254846,56.876966 89.90625,52.15625 C 91.059406,50.985911 92.72522,49.233037 93.75,46.28125 C 94.77478,43.329463 95.191148,39.142016 93.1875,32.90625 C 91.59093,27.93739 88.183239,24.437012 83.59375,22.03125 C 79.004261,19.625488 73.248001,18.45675 67.4375,18.5 z"/><path id="path20" fill="#d05800" fill-opacity="1" d="M 81.092631,105.85391 C 81.092631,88.603909 54.341631,88.605909 54.341631,105.85391 C 54.341631,123.10391 81.092631,123.10591 81.092631,105.85391"/><path id="path22" fill="#fff" d="M 77.982631,105.85391 C 77.982631,92.612909 57.450631,92.615909 57.450631,105.85391 C 57.450631,119.09491 77.982631,119.09691 77.982631,105.85391"/></svg>